<svg width="654" height="549" viewBox="0 0 654 549" fill="none" xmlns="http://www.w3.org/2000/svg">
<g clip-path="url(#clip0_19_76)">
<path d="M425.734 542.861L303.221 321.778C303.186 321.237 303.019 320.712 302.734 320.252C302.448 319.791 302.054 319.407 301.586 319.135C301.048 318.827 300.434 318.679 299.816 318.707C299.796 318.706 299.776 318.707 299.756 318.706C299.736 318.707 299.716 318.706 299.696 318.707C298.858 318.668 298.037 318.955 297.405 319.507C296.774 320.06 296.38 320.835 296.306 321.672L166.46 542.861C166.243 543.236 166.103 543.65 166.046 544.079C165.989 544.508 166.018 544.945 166.13 545.363C166.242 545.781 166.435 546.173 166.698 546.517C166.961 546.86 167.29 547.149 167.664 547.365C168.039 547.582 168.452 547.722 168.881 547.779C169.31 547.835 169.746 547.806 170.164 547.694C170.582 547.582 170.973 547.389 171.316 547.125C171.66 546.861 171.947 546.532 172.164 546.157L299.668 328.957L420.03 546.157C420.247 546.532 420.534 546.861 420.877 547.125C421.221 547.389 421.612 547.582 422.03 547.694C422.448 547.806 422.884 547.835 423.313 547.779C423.742 547.722 424.155 547.582 424.53 547.365C424.904 547.149 425.233 546.86 425.496 546.517C425.759 546.173 425.952 545.781 426.064 545.363C426.176 544.945 426.204 544.508 426.148 544.079C426.091 543.65 425.951 543.236 425.734 542.861Z" fill="#3F3D56"/>
<path d="M279.455 504.929L293.303 501.749L287.638 446.776L267.2 451.469L279.455 504.929Z" fill="#FFB6B6"/>
<path d="M290.162 478.372L270.455 482.897L264.153 470.572L263.797 470.135C261.001 466.701 259.45 462.421 259.395 457.992L243.015 414.625L241.676 413.988C240.64 413.495 239.721 412.786 238.98 411.909C238.239 411.032 237.694 410.007 237.381 408.902C237.068 407.797 236.993 406.638 237.163 405.503C237.333 404.367 237.743 403.28 238.366 402.316L236.632 397.725L187.702 397.815L187.653 397.801L127.568 380.932L133.876 343.29L150.778 353.931C156.348 353.569 251.753 347.706 260.567 369.106C268.415 388.163 279.725 420.721 287.831 444.677C288.236 445.753 288.738 446.789 289.332 447.772C290.593 449.716 291.333 451.952 291.481 454.265C291.577 455.271 291.769 456.266 292.054 457.236C295.423 467.316 290.29 478.106 290.238 478.215L290.162 478.372Z" fill="#2F2E41"/>
<path d="M274.777 500.333L279.279 499.299L295.217 488.108L306.278 493.099L306.28 493.098C311.604 491.876 317.195 492.821 321.823 495.725C326.452 498.628 329.738 503.253 330.96 508.582L331.11 509.235L279.533 521.079L274.777 500.333Z" fill="#2F2E41"/>
<path d="M70.3156 501.567C71.7235 486.229 80.7001 470.872 95.0976 465.433C89.8613 481.342 90.4162 498.592 96.6639 514.131C99.0951 520.116 102.422 526.518 100.514 532.689C99.3263 536.529 96.217 539.538 92.6955 541.469C89.1737 543.401 85.2284 544.395 81.3322 545.37L80.5806 546.034C73.9005 532.158 68.9077 516.906 70.3156 501.567Z" fill="#F0F0F0"/>
<path d="M95.2513 465.717C87.0791 475.496 82.1933 487.605 81.288 500.322C81.0445 503.056 81.2332 505.812 81.8471 508.487C82.5292 511.074 83.8909 513.431 85.7909 515.313C87.5272 517.103 89.5103 518.733 90.7816 520.915C91.4157 522.041 91.8048 523.289 91.9234 524.576C92.0419 525.864 91.8872 527.162 91.4693 528.385C90.5075 531.461 88.4989 534.007 86.4482 536.429C84.1713 539.117 81.7638 541.874 80.8715 545.37C80.7634 545.794 80.113 545.601 80.2209 545.178C81.7734 539.095 87.5086 535.484 90.1219 529.966C91.3413 527.392 91.7929 524.434 90.4877 521.799C89.3464 519.495 87.3027 517.813 85.529 516.015C83.6487 514.206 82.2394 511.964 81.4244 509.485C80.6764 506.849 80.382 504.106 80.5538 501.371C80.8423 495.209 82.097 489.131 84.2721 483.359C86.7179 476.757 90.2739 470.623 94.7864 465.222C95.0658 464.888 95.5289 465.385 95.2513 465.717Z" fill="white"/>
<path d="M81.3387 496.21C79.2276 495.768 77.3421 494.59 76.0189 492.885C74.6957 491.18 74.021 489.06 74.1153 486.904C74.1199 486.816 74.1585 486.733 74.2228 486.673C74.2872 486.613 74.3723 486.58 74.4603 486.582C74.5482 486.584 74.6321 486.619 74.6943 486.682C74.7565 486.744 74.7921 486.828 74.7936 486.916C74.7021 488.924 75.3308 490.899 76.5662 492.483C77.8016 494.068 79.5623 495.159 81.5306 495.559C81.9582 495.646 81.7639 496.297 81.3387 496.21Z" fill="white"/>
<path d="M84.7911 514.521C88.5019 512.138 91.1792 508.443 92.289 504.172C92.3986 503.749 93.049 503.942 92.9396 504.364C91.7764 508.806 88.9825 512.646 85.1154 515.117C84.7467 515.352 84.4243 514.755 84.7911 514.521Z" fill="white"/>
<path d="M87.3675 477.38C88.1488 477.721 89.0025 477.863 89.852 477.792C90.7015 477.722 91.5201 477.441 92.2345 476.975C92.6001 476.736 92.922 477.333 92.5588 477.572C91.7672 478.082 90.8627 478.391 89.9243 478.471C88.9859 478.551 88.0422 478.4 87.1757 478.031C87.0911 478.003 87.0203 477.944 86.9777 477.866C86.9351 477.787 86.9239 477.696 86.9463 477.609C86.9721 477.523 87.0309 477.451 87.1098 477.408C87.1886 477.365 87.2813 477.355 87.3675 477.38Z" fill="white"/>
<path d="M140.345 491.293C140.121 491.45 139.897 491.606 139.673 491.768C136.672 493.884 133.848 496.241 131.228 498.815C131.022 499.011 130.817 499.212 130.617 499.414C124.372 505.683 119.344 513.058 115.788 521.164C114.377 524.391 113.212 527.72 112.305 531.124C111.053 535.825 110.068 541.021 107.416 544.919C107.143 545.328 106.846 545.721 106.525 546.094L81.4482 546.9C81.3903 546.873 81.3323 546.852 81.2741 546.825L80.2744 546.903C80.3089 546.725 80.3485 546.54 80.3831 546.361C80.4027 546.257 80.4278 546.153 80.4475 546.049C80.4623 545.98 80.4774 545.911 80.4869 545.848C80.4917 545.824 80.4968 545.801 80.5019 545.784C80.5113 545.721 80.5268 545.663 80.5364 545.605C80.7552 544.572 80.9817 543.539 81.2158 542.505C81.2156 542.499 81.2156 542.499 81.221 542.493C82.9294 534.6 85.5673 526.937 89.0794 519.666C89.1872 519.451 89.2944 519.229 89.4136 519.014C91.0446 515.792 92.936 512.71 95.0687 509.797C96.2416 508.206 97.4943 506.675 98.8219 505.211C102.259 501.434 106.269 498.221 110.704 495.692C119.546 490.649 129.9 488.493 139.606 491.088C139.854 491.154 140.097 491.221 140.345 491.293Z" fill="#F0F0F0"/>
<path d="M140.299 491.614C127.891 494.498 116.707 501.221 108.334 510.829C106.495 512.866 104.988 515.18 103.869 517.686C102.857 520.162 102.527 522.865 102.912 525.512C103.221 527.988 103.824 530.485 103.527 532.993C103.356 534.274 102.916 535.505 102.236 536.604C101.556 537.704 100.652 538.647 99.5822 539.372C96.9642 541.248 93.8288 542.071 90.7348 542.768C87.2995 543.543 83.719 544.293 80.9035 546.547C80.5623 546.82 80.1589 546.274 80.4996 546.002C85.3981 542.08 92.1496 542.653 97.5553 539.822C100.078 538.501 102.218 536.412 102.76 533.522C103.235 530.995 102.615 528.419 102.28 525.915C101.867 523.338 102.09 520.699 102.931 518.228C103.919 515.673 105.335 513.305 107.116 511.225C111.054 506.479 115.712 502.382 120.92 499.084C126.844 495.287 133.373 492.532 140.225 490.939C140.649 490.84 140.72 491.516 140.299 491.614Z" fill="white"/>
<path d="M110.848 507.577C109.428 505.952 108.631 503.875 108.6 501.716C108.569 499.558 109.306 497.459 110.678 495.794C110.957 495.458 111.492 495.876 111.213 496.212C109.932 497.76 109.246 499.716 109.279 501.726C109.312 503.735 110.062 505.667 111.393 507.172C111.682 507.5 111.135 507.902 110.848 507.577Z" fill="white"/>
<path d="M102.59 524.278C106.986 524.611 111.346 523.274 114.801 520.533C115.144 520.261 115.547 520.807 115.205 521.079C111.605 523.924 107.064 525.306 102.49 524.949C102.054 524.915 102.156 524.243 102.59 524.278Z" fill="white"/>
<path d="M126.988 496.175C127.407 496.918 128.003 497.546 128.724 498.002C129.445 498.457 130.267 498.726 131.118 498.785C131.554 498.814 131.451 499.485 131.018 499.457C130.079 499.387 129.171 499.089 128.373 498.587C127.576 498.086 126.913 497.396 126.444 496.579C126.393 496.506 126.372 496.416 126.385 496.328C126.398 496.24 126.444 496.16 126.514 496.105C126.586 496.052 126.677 496.029 126.766 496.042C126.855 496.056 126.935 496.103 126.988 496.175Z" fill="white"/>
<path d="M480.602 501.567C479.195 486.229 470.218 470.872 455.82 465.433C461.057 481.342 460.502 498.592 454.254 514.131C451.823 520.116 448.496 526.518 450.404 532.689C451.592 536.529 454.701 539.538 458.223 541.469C461.744 543.401 465.69 544.395 469.586 545.37L470.337 546.034C477.018 532.158 482.01 516.906 480.602 501.567Z" fill="#F0F0F0"/>
<path d="M455.667 465.717C463.839 475.496 468.725 487.605 469.63 500.322C469.873 503.056 469.685 505.812 469.071 508.487C468.389 511.074 467.027 513.431 465.127 515.313C463.391 517.103 461.408 518.733 460.136 520.915C459.502 522.041 459.113 523.289 458.995 524.576C458.876 525.864 459.031 527.162 459.449 528.385C460.411 531.461 462.419 534.007 464.47 536.429C466.747 539.117 469.154 541.874 470.047 545.37C470.155 545.794 470.805 545.601 470.697 545.178C469.145 539.095 463.409 535.484 460.796 529.966C459.577 527.392 459.125 524.434 460.43 521.799C461.572 519.495 463.615 517.813 465.389 516.015C467.269 514.206 468.679 511.964 469.494 509.485C470.242 506.849 470.536 504.106 470.364 501.371C470.076 495.209 468.821 489.131 466.646 483.359C464.2 476.757 460.644 470.623 456.132 465.222C455.852 464.888 455.389 465.385 455.667 465.717Z" fill="white"/>
<path d="M469.579 496.21C471.69 495.768 473.576 494.59 474.899 492.885C476.222 491.18 476.897 489.06 476.803 486.904C476.798 486.816 476.76 486.733 476.695 486.673C476.631 486.613 476.546 486.58 476.458 486.582C476.37 486.584 476.286 486.619 476.224 486.682C476.162 486.744 476.126 486.828 476.124 486.916C476.216 488.924 475.587 490.899 474.352 492.483C473.116 494.068 471.356 495.159 469.387 495.559C468.96 495.646 469.154 496.297 469.579 496.21Z" fill="white"/>
<path d="M466.127 514.521C462.416 512.138 459.739 508.443 458.629 504.172C458.519 503.749 457.869 503.942 457.978 504.364C459.142 508.806 461.936 512.646 465.803 515.117C466.171 515.352 466.494 514.755 466.127 514.521Z" fill="white"/>
<path d="M463.55 477.38C462.769 477.721 461.916 477.863 461.066 477.792C460.217 477.722 459.398 477.441 458.684 476.975C458.318 476.736 457.996 477.333 458.359 477.572C459.151 478.082 460.055 478.391 460.994 478.471C461.932 478.551 462.876 478.4 463.742 478.031C463.827 478.003 463.898 477.944 463.94 477.866C463.983 477.787 463.994 477.696 463.972 477.609C463.946 477.523 463.887 477.451 463.808 477.408C463.729 477.365 463.637 477.355 463.55 477.38Z" fill="white"/>
<path d="M410.573 491.293C410.797 491.45 411.021 491.606 411.245 491.768C414.246 493.884 417.07 496.241 419.69 498.815C419.896 499.011 420.101 499.212 420.301 499.414C426.546 505.683 431.574 513.058 435.13 521.164C436.541 524.391 437.706 527.72 438.613 531.124C439.865 535.825 440.85 541.021 443.502 544.919C443.775 545.328 444.072 545.721 444.393 546.094L469.47 546.9C469.528 546.873 469.586 546.852 469.644 546.825L470.644 546.903C470.609 546.725 470.569 546.54 470.535 546.361C470.515 546.257 470.49 546.153 470.471 546.049C470.456 545.98 470.441 545.911 470.431 545.848C470.426 545.824 470.421 545.801 470.416 545.784C470.407 545.721 470.391 545.663 470.382 545.605C470.163 544.572 469.936 543.539 469.702 542.505C469.702 542.499 469.702 542.499 469.697 542.493C467.989 534.6 465.351 526.938 461.839 519.666C461.731 519.451 461.624 519.229 461.504 519.014C459.873 515.792 457.982 512.71 455.849 509.797C454.676 508.206 453.424 506.675 452.096 505.211C448.659 501.434 444.649 498.221 440.214 495.692C431.372 490.649 421.018 488.493 411.312 491.088C411.064 491.154 410.821 491.221 410.573 491.293Z" fill="#F0F0F0"/>
<path d="M410.619 491.614C423.027 494.498 434.211 501.221 442.584 510.829C444.423 512.866 445.93 515.18 447.049 517.686C448.061 520.162 448.391 522.865 448.006 525.512C447.697 527.988 447.094 530.485 447.391 532.993C447.562 534.274 448.002 535.505 448.682 536.604C449.362 537.704 450.266 538.647 451.336 539.372C453.954 541.248 457.089 542.07 460.183 542.768C463.618 543.543 467.199 544.293 470.015 546.547C470.356 546.82 470.759 546.274 470.418 546.002C465.52 542.08 458.768 542.653 453.363 539.822C450.84 538.501 448.7 536.412 448.158 533.522C447.683 530.995 448.303 528.419 448.638 525.915C449.051 523.338 448.828 520.699 447.987 518.228C446.999 515.673 445.583 513.305 443.802 511.225C439.864 506.479 435.206 502.382 429.998 499.084C424.074 495.287 417.545 492.532 410.693 490.939C410.269 490.84 410.198 491.516 410.619 491.614Z" fill="white"/>
<path d="M440.07 507.577C441.49 505.952 442.287 503.875 442.318 501.716C442.349 499.558 441.612 497.459 440.24 495.794C439.961 495.458 439.426 495.876 439.705 496.212C440.986 497.76 441.672 499.716 441.639 501.726C441.606 503.735 440.856 505.667 439.525 507.172C439.236 507.5 439.783 507.902 440.07 507.577Z" fill="white"/>
<path d="M448.328 524.278C443.932 524.611 439.572 523.274 436.117 520.533C435.774 520.261 435.371 520.807 435.713 521.079C439.313 523.924 443.854 525.306 448.428 524.949C448.864 524.915 448.762 524.243 448.328 524.278Z" fill="white"/>
<path d="M423.93 496.175C423.511 496.918 422.915 497.546 422.194 498.002C421.473 498.457 420.651 498.726 419.8 498.785C419.364 498.814 419.467 499.485 419.9 499.457C420.839 499.387 421.747 499.089 422.545 498.587C423.342 498.086 424.005 497.396 424.475 496.579C424.525 496.506 424.546 496.416 424.533 496.328C424.52 496.24 424.474 496.16 424.404 496.105C424.332 496.052 424.241 496.029 424.152 496.042C424.064 496.056 423.983 496.103 423.93 496.175Z" fill="white"/>
<path d="M654 548.128C653.999 548.359 653.908 548.581 653.744 548.744C653.581 548.907 653.36 548.999 653.129 549H0.871155C0.640192 549 0.418685 548.908 0.25537 548.745C0.0920538 548.581 0.000305176 548.36 0.000305176 548.128C0.000305176 547.897 0.0920538 547.676 0.25537 547.512C0.418685 547.349 0.640192 547.257 0.871155 547.257H653.129C653.36 547.257 653.581 547.349 653.744 547.513C653.908 547.676 653.999 547.897 654 548.128Z" fill="#3F3D56"/>
<path d="M420.138 210.948C421.957 210.948 423.431 209.473 423.431 207.652C423.431 205.832 421.957 204.356 420.138 204.356C418.319 204.356 416.845 205.832 416.845 207.652C416.845 209.473 418.319 210.948 420.138 210.948Z" fill="#3F3D56"/>
<path d="M378.902 233.041L423.298 205.124C423.7 204.871 424.148 204.702 424.617 204.628C425.085 204.554 425.564 204.576 426.024 204.692C426.484 204.808 426.915 205.016 427.293 205.304C427.67 205.591 427.985 205.953 428.219 206.366C428.453 206.779 428.601 207.235 428.653 207.707C428.706 208.179 428.663 208.656 428.526 209.111C428.389 209.565 428.162 209.987 427.858 210.352C427.553 210.716 427.178 211.014 426.756 211.23L380.016 235.009C379.757 235.141 379.456 235.168 379.177 235.084C378.899 235 378.663 234.811 378.519 234.558C378.376 234.304 378.336 234.005 378.407 233.723C378.478 233.44 378.655 233.196 378.902 233.041Z" fill="#E4E4E4"/>
<path d="M289.833 293.153C289.484 292.633 289.301 292.018 289.31 291.391C289.319 290.764 289.519 290.155 289.884 289.644C290.635 288.638 291.636 287.844 292.786 287.341C295.162 286.131 297.721 285.321 300.36 284.945C302.365 284.661 304.554 284.57 306.11 283.271C307.655 281.981 308.516 279.57 310.519 279.368C312.454 279.174 313.942 281.294 315.883 281.426C318.276 281.588 319.842 278.786 322.171 278.211C323.729 277.826 325.331 278.505 326.793 279.169L335.565 283.152L340.062 285.194C341.632 285.907 343.403 286.867 343.7 288.568C344.107 290.904 341.511 292.553 339.291 293.382C323.44 299.237 306.022 299.24 290.169 293.388" fill="#7FAD39"/>
<path d="M303.049 336.199C366.705 336.199 418.309 328.82 418.309 319.718C418.309 310.616 366.705 303.238 303.049 303.238C239.393 303.238 187.79 310.616 187.79 319.718C187.79 328.82 239.393 336.199 303.049 336.199Z" fill="#3F3D56"/>
<path d="M536.861 421.896H457.826C454.188 421.896 451.24 424.848 451.24 428.488C451.24 432.129 454.188 435.081 457.826 435.081H536.861C540.498 435.081 543.447 432.129 543.447 428.488C543.447 424.848 540.498 421.896 536.861 421.896Z" fill="#3F3D56"/>
<path d="M575.164 304.366L549.06 428.481L555.859 460.248L568.694 520.2V547.147C568.696 547.184 568.693 547.22 568.687 547.257C568.683 547.852 568.574 548.442 568.365 549H558.047C557.838 548.442 557.729 547.852 557.725 547.257C557.719 547.22 557.716 547.184 557.717 547.147V521.357L546.067 466.943L543.711 455.956L539.151 434.663L537.834 428.496V428.489L539.137 422.307L540.139 417.538L564.421 302.11C564.568 301.403 564.853 300.733 565.26 300.137C565.666 299.54 566.186 299.03 566.79 298.635C567.393 298.24 568.069 297.968 568.778 297.835C569.486 297.701 570.214 297.708 570.92 297.857C571.626 298.005 572.296 298.291 572.891 298.698C573.486 299.106 573.996 299.627 574.39 300.231C574.784 300.836 575.055 301.512 575.188 302.221C575.321 302.931 575.312 303.66 575.164 304.366Z" fill="#3F3D56"/>
<path d="M463.314 428.488V547.147C463.316 547.184 463.313 547.22 463.307 547.257C463.303 547.852 463.194 548.442 462.985 549H452.667C452.458 548.442 452.349 547.852 452.345 547.257C452.339 547.22 452.336 547.184 452.337 547.147V428.488C452.337 427.032 452.916 425.634 453.945 424.604C454.974 423.574 456.37 422.995 457.826 422.995C459.282 422.995 460.678 423.574 461.707 424.604C462.736 425.634 463.314 427.032 463.314 428.488Z" fill="#3F3D56"/>
<path d="M470.998 408.712H523.688C528.929 408.712 533.955 410.796 537.66 414.504C541.365 418.213 543.447 423.243 543.447 428.488H451.24C451.24 423.243 453.321 418.213 457.027 414.504C460.732 410.796 465.758 408.712 470.998 408.712Z" fill="#3F3D56"/>
<path d="M550.033 466.943H457.826C456.37 466.943 454.974 466.364 453.945 465.334C452.916 464.303 452.337 462.906 452.337 461.449C452.337 459.992 452.916 458.595 453.945 457.565C454.974 456.535 456.37 455.956 457.826 455.956H550.033C551.489 455.956 552.885 456.535 553.914 457.565C554.944 458.595 555.522 459.992 555.522 461.449C555.522 462.906 554.944 464.303 553.914 465.334C552.885 466.364 551.489 466.943 550.033 466.943Z" fill="#3F3D56"/>
<path d="M121.129 435.28H214.135C217.772 435.28 220.721 432.329 220.721 428.688V426.691C220.721 423.05 217.772 420.099 214.135 420.099H121.129C117.491 420.099 114.543 423.05 114.543 426.691V428.688C114.543 432.329 117.491 435.28 121.129 435.28Z" fill="#3F3D56"/>
<path d="M120.171 427.778L118.488 434.722L112.311 460.153L109.648 471.14L97.2799 522.104V544.217C97.2832 545.3 96.9621 546.359 96.358 547.257C95.8831 547.983 95.2374 548.582 94.4774 549H89.1057C88.3458 548.582 87.7 547.983 87.2251 547.257C86.621 546.359 86.2997 545.3 86.3028 544.217V520.786L100.046 464.167L108.916 427.602L78.8386 284.59C78.6898 283.884 78.6814 283.155 78.8139 282.446C78.9465 281.737 79.2174 281.061 79.6111 280.457C80.0049 279.853 80.5137 279.332 81.1086 278.925C81.7036 278.517 82.3728 278.232 83.0782 278.083C83.7836 277.935 84.5113 277.927 85.2196 278.061C85.928 278.194 86.6031 278.466 87.2064 278.861C87.8097 279.256 88.3293 279.766 88.7356 280.361C89.1419 280.957 89.4268 281.627 89.5742 282.334L117.376 414.491L118.656 420.585L120.149 427.69L120.171 427.778Z" fill="#3F3D56"/>
<path d="M218.628 427.69V544.217C218.631 545.3 218.31 546.359 217.706 547.257C217.231 547.983 216.585 548.582 215.825 549H210.446C209.69 548.579 209.047 547.981 208.573 547.257C207.969 546.359 207.648 545.3 207.651 544.217V427.69C207.651 426.233 208.229 424.836 209.259 423.806C210.288 422.775 211.684 422.197 213.14 422.197C214.595 422.197 215.991 422.775 217.021 423.806C218.05 424.836 218.628 426.233 218.628 427.69Z" fill="#3F3D56"/>
<path d="M220.721 427.689H114.543V424.693C114.543 422.096 115.054 419.524 116.047 417.125C117.04 414.726 118.495 412.545 120.33 410.709C122.165 408.873 124.343 407.416 126.74 406.422C129.137 405.428 131.707 404.917 134.301 404.917H200.962C206.203 404.917 211.228 407 214.934 410.709C218.639 414.418 220.721 419.448 220.721 424.693V427.689Z" fill="#3F3D56"/>
<path d="M213.137 471.137H106.958C105.503 471.137 104.107 470.559 103.078 469.528C102.048 468.498 101.47 467.101 101.47 465.644C101.47 464.187 102.048 462.79 103.078 461.759C104.107 460.729 105.503 460.15 106.958 460.15H213.137C214.593 460.15 215.989 460.729 217.018 461.759C218.047 462.79 218.625 464.187 218.625 465.644C218.625 467.101 218.047 468.498 217.018 469.528C215.989 470.559 214.593 471.137 213.137 471.137Z" fill="#3F3D56"/>
<path d="M349.593 519.058L338.058 513.536L353.903 465.275L370.929 473.424L349.593 519.058Z" fill="#9E616A"/>
<path d="M427.771 514.686L415.367 517.75L397.395 470.252L415.703 465.73L427.771 514.686Z" fill="#9E616A"/>
<path d="M380.228 309.293C381.873 311.968 384.498 313.893 387.542 314.657C390.586 315.421 393.807 314.965 396.519 313.384C397.064 313.054 397.582 312.679 398.065 312.263L434.536 333.211L432.952 311.707L398.561 295.111C396.69 293.23 394.248 292.023 391.618 291.68C388.988 291.337 386.318 291.878 384.028 293.217C382.709 294.009 381.562 295.058 380.655 296.3C379.747 297.543 379.097 298.955 378.743 300.453C378.389 301.952 378.338 303.505 378.593 305.024C378.848 306.542 379.404 307.993 380.228 309.293Z" fill="#9E616A"/>
<path d="M418.856 325.323L425.303 329.255L454.256 346.926C456.158 348.117 458.275 348.922 460.488 349.293C462.7 349.664 464.964 349.595 467.15 349.09C469.336 348.585 471.401 347.654 473.227 346.35C475.053 345.046 476.604 343.394 477.792 341.489C479.936 337.954 480.694 333.749 479.921 329.687L467.053 265.339C466.578 262.813 465.563 260.419 464.078 258.322C462.593 256.224 460.674 254.472 458.45 253.186C456.227 251.899 453.752 251.108 451.195 250.867C448.638 250.626 446.059 250.941 443.635 251.789C439.56 253.222 436.184 256.156 434.193 259.992C432.202 263.829 431.746 268.28 432.919 272.441L446.375 318.108L425.749 308.483L418.856 325.323Z" fill="#E6E6E6"/>
<path d="M403.613 501.376L383.764 461.531L383.766 461.439L385.726 388.357C385.751 387.708 385.803 387.054 385.882 386.412C386.228 383.482 387.154 380.65 388.605 378.081C390.056 375.513 392.003 373.259 394.333 371.451C396.565 369.703 399.122 368.418 401.855 367.67C404.589 366.922 407.443 366.726 410.253 367.094L467.012 374.445L468.98 366.389L469.347 366.256L523.73 346.307L524.044 346.818C531.166 358.417 536.145 381.587 537.502 388.412L537.521 388.51C537.55 388.654 537.567 388.741 537.573 388.767C540.373 400.414 528.804 419.707 517.28 422.607C493.006 428.799 471.297 423.969 446.16 418.375C437.146 416.368 427.83 414.294 417.569 412.501L417.874 418.546C418.124 423.198 419.089 427.784 420.737 432.142C422.566 437.505 424.011 441.742 420.955 450.575L419.477 454.847C420.244 456.969 420.508 459.239 420.248 461.48C419.989 463.721 419.212 465.87 417.981 467.76L417.684 468.214L430.774 501.368L403.613 501.376Z" fill="#2F2E41"/>
<path d="M371 483.755L347.33 481.553L355.716 454.71C357.446 437.184 361.806 420.018 368.65 403.792L380.088 376.66C380.114 376.056 380.165 375.449 380.239 374.853C380.585 371.923 381.51 369.091 382.961 366.522C384.412 363.954 386.36 361.7 388.69 359.893C390.922 358.146 393.479 356.861 396.212 356.113C398.945 355.365 401.8 355.168 404.609 355.535L461.284 362.877L463.753 342.14L518.151 334.854L518.4 335.259C527.908 350.744 533.945 362.866 537.397 373.409C537.57 373.946 537.724 374.495 537.856 375.041C540.674 386.767 533.638 398.654 522.17 401.541C492.946 408.998 457.803 408.791 411.597 400.886L389.235 454.15C387.098 459.238 384.452 464.095 381.337 468.65L371 483.755Z" fill="#2F2E41"/>
<path d="M453.565 214.859C468.708 214.859 480.984 202.298 480.984 186.804C480.984 171.31 468.708 158.749 453.565 158.749C438.422 158.749 426.146 171.31 426.146 186.804C426.146 202.298 438.422 214.859 453.565 214.859Z" fill="#9E616A"/>
<path d="M461.482 363.856L457.548 349.749L456.581 342.791L450.926 342.98L439.828 317.341L435.518 310.58C434.639 309.654 433.843 308.763 433.129 307.908C428.638 302.827 425.037 297.023 422.477 290.741C420.684 286.228 419.631 281.454 419.359 276.604C418.555 262.279 424.588 247.123 437.805 230.273C437.588 229.676 437.444 229.056 437.375 228.425C437.138 226.378 437.719 224.321 438.991 222.7C440.262 221.08 442.122 220.027 444.164 219.772L456.912 218.339C457.903 218.227 458.907 218.313 459.865 218.592C460.822 218.872 461.715 219.339 462.491 219.967C463.3 220.617 463.973 221.421 464.469 222.334C464.965 223.246 465.275 224.248 465.38 225.282C465.551 226.88 465.236 228.493 464.478 229.91C470.976 230.736 477.098 233.42 482.11 237.641C487.121 241.862 490.81 247.44 492.733 253.707C500.361 267.959 506.441 282.989 510.868 298.538C511.741 301.584 511.352 304.722 510.976 307.756C510.629 310.559 510.27 313.458 510.874 316.347C511.488 319.286 512.965 322.233 514.529 325.354C516.32 328.928 518.172 332.624 518.672 336.392L518.708 336.656L461.482 363.856Z" fill="#E4E4E4"/>
<path opacity="0.2" d="M422.816 290.602C425.364 296.848 428.945 302.619 433.41 307.673C434.174 308.587 434.982 309.484 435.827 310.384L440.164 317.195C456.153 305.2 469.107 257.97 469.107 257.97L451.067 254.458L422.816 290.602Z" fill="black"/>
<path d="M411.895 217.48C413.474 220.196 413.933 223.421 413.173 226.47C412.413 229.52 410.494 232.151 407.824 233.806C407.276 234.134 406.702 234.416 406.108 234.649L407.385 276.717L389.183 265.249L390.761 227.058C389.987 224.517 390.075 221.79 391.011 219.304C391.948 216.818 393.68 214.712 395.938 213.315C397.254 212.519 398.715 211.994 400.236 211.773C401.758 211.551 403.308 211.637 404.795 212.025C406.283 212.414 407.677 213.096 408.897 214.033C410.116 214.97 411.135 216.142 411.895 217.48Z" fill="#9E616A"/>
<path d="M408.985 260.838L388.968 263.686L389.829 305.174C389.879 308.134 390.684 311.032 392.168 313.592C393.652 316.152 395.766 318.29 398.308 319.803C401.414 321.632 405.029 322.401 408.609 321.994C412.19 321.587 415.541 320.027 418.158 317.547L465.414 272.053C468.739 268.896 470.729 264.584 470.975 260.003C471.22 255.423 469.703 250.922 466.735 247.427C465.266 245.687 463.463 244.26 461.432 243.23C459.402 242.201 457.186 241.59 454.915 241.435C452.644 241.279 450.365 241.582 448.214 242.324C446.062 243.067 444.081 244.235 442.389 245.759C441.922 246.176 441.478 246.619 441.059 247.085L409.855 283.014L408.985 260.838Z" fill="#E6E6E6"/>
<path d="M241.572 531.449L255.779 531.448L262.538 476.599H241.57L241.572 531.449Z" fill="#FFB6B6"/>
<path d="M161.042 215.673C176.703 215.673 189.398 202.966 189.398 187.292C189.398 171.617 176.703 158.91 161.042 158.91C145.381 158.91 132.685 171.617 132.685 187.292C132.685 202.966 145.381 215.673 161.042 215.673Z" fill="#FFB6B6"/>
<path d="M260.416 514.552H240.297L235.168 507.671L233.78 501.188L232.585 500.03C230.964 498.473 229.916 496.413 229.61 494.185C229.305 491.957 229.761 489.691 230.903 487.754L216.322 419.664C212.503 419.327 169.436 415.473 139.498 410.17C131.837 408.813 125.855 405.086 121.719 399.091C111.556 384.361 115.909 360.526 115.954 360.288L116.004 360.022L116.273 359.991L186.2 352.136L186.295 352.18C188.615 353.281 243.23 379.231 252.155 388.164C256.185 392.198 265.177 416.164 267.19 441.644C267.55 446.208 266.253 450.857 264.998 455.352C263.823 459.559 262.609 463.908 262.849 468.02C263.219 474.364 263.57 481.019 263.892 487.8C263.943 488.881 264.757 489.999 265.543 491.08C266.365 492.21 267.141 493.277 267.19 494.394C267.668 505.222 260.597 514.322 260.526 514.413L260.416 514.552Z" fill="#2F2E41"/>
<path d="M264.997 262.886C263.474 262.469 261.878 262.392 260.321 262.659C258.765 262.926 257.286 263.532 255.989 264.433C254.691 265.335 253.607 266.51 252.813 267.876C252.018 269.242 251.533 270.766 251.39 272.34L227.83 279.71L228.813 295.133L261.939 284.257C264.597 284.321 267.186 283.407 269.216 281.689C271.246 279.97 272.575 277.565 272.952 274.931C273.329 272.297 272.727 269.616 271.261 267.396C269.795 265.176 267.566 263.571 264.997 262.886Z" fill="#FFB6B6"/>
<path d="M249.625 288.408L232.016 295.079L231.565 295.953C230.486 298.049 228.619 299.63 226.374 300.348C224.13 301.067 221.693 300.863 219.598 299.783L180.019 314.776C180.019 314.776 162.344 297.072 149.76 281.273L154.049 254.869C155.042 248.743 157.153 242.852 160.277 237.491C186.085 243.155 200.9 279.265 200.9 279.265L247.412 270.382L249.625 288.408Z" fill="#7FAD39"/>
<path d="M157.012 214.156C149.913 216.075 142.087 213.524 136.547 208.684C131.007 203.845 127.541 196.987 125.544 189.904C124.082 184.716 123.389 178.958 125.696 174.087C128.004 169.217 134.215 165.931 139.007 168.391C136.051 164.944 137.528 159.243 140.98 156.294C144.433 153.345 149.173 152.5 153.688 152.038C160.241 151.367 167.01 151.292 173.245 153.417C179.481 155.541 185.146 160.187 187.097 166.484C189.091 167.412 191.335 167.653 193.48 167.169C195.624 166.684 197.548 165.501 198.949 163.805C199.31 165.753 199.02 167.766 198.123 169.532C197.227 171.298 195.774 172.719 193.989 173.575L203.543 170.475C205.186 173.956 202.307 178.264 198.625 179.379C194.943 180.493 190.969 179.275 187.476 177.664C183.982 176.054 180.596 174.018 176.801 173.39C173.006 172.762 168.549 173.982 166.793 177.408C165.874 179.202 165.826 181.303 165.292 183.248C164.758 185.192 163.406 187.208 161.398 187.367C160.129 187.468 158.887 186.791 157.621 186.929C156.053 187.101 154.852 188.523 154.434 190.046C154.119 191.598 154.115 193.197 154.423 194.751L156.85 213.317" fill="#2F2E41"/>
<path d="M121.882 402.483C121.876 402.483 121.871 402.482 121.866 402.481L121.641 402.443L121.577 402.224C120.761 399.48 119.724 396.671 118.721 393.954C117.243 390.191 115.995 386.342 114.985 382.427C114.189 378.685 113.638 374.895 113.334 371.081C113.054 368.312 112.764 365.449 112.272 362.63C112.054 361.379 112.882 360.194 113.683 359.047C114.425 357.985 115.127 356.981 114.979 356.031C114.829 355.06 113.753 353.994 112.713 352.962C111.572 351.832 110.393 350.663 110.226 349.432C107.953 332.644 106.895 315.714 107.06 298.773C107.295 275.334 108.353 259.357 110.205 251.287C115.186 229.586 138.196 225.626 141.798 225.137C142.181 224.114 142.771 223.182 143.531 222.397C144.29 221.612 145.202 220.993 146.211 220.576C147.22 220.16 148.304 219.955 149.395 219.976C150.487 219.997 151.562 220.243 152.554 220.697L168.903 228.188C172.22 229.713 175.187 231.904 177.622 234.625C180.056 237.347 181.906 240.54 183.055 244.007L185.484 251.418L186.7 301.166L179.958 336.199L193.131 355.975C122.926 394.554 122.108 402.483 121.882 402.483Z" fill="#7FAD39"/>
<path d="M233.927 525.922H238.546L256.58 518.581L266.246 525.921H266.248C271.71 525.921 276.949 528.093 280.811 531.959C284.674 535.825 286.844 541.068 286.844 546.535V547.205L233.928 547.207L233.927 525.922Z" fill="#2F2E41"/>
<path d="M270.896 298.387C269.535 297.586 268.014 297.095 266.442 296.947C264.869 296.798 263.284 296.997 261.797 297.528C260.309 298.059 258.957 298.911 257.833 300.022C256.71 301.133 255.845 302.477 255.297 303.96L230.631 304.923L227.307 316.422L262.373 318.219C264.923 318.975 267.66 318.769 270.068 317.64C272.475 316.51 274.385 314.536 275.436 312.092C276.487 309.647 276.605 306.902 275.768 304.376C274.931 301.85 273.198 299.719 270.896 298.387Z" fill="#FFB6B6"/>
<path d="M250.635 319.459L225.298 319.143L222.091 319.099L170.542 318.449C170.542 318.449 156.543 305.083 144.354 291.321L146.063 278.952C147.729 266.814 153.745 255.695 162.991 247.665C180.449 259.34 190.573 282.451 190.573 282.451L207.549 290.054C219.495 290.589 231.136 294.001 241.484 300.001L247.066 303.238L250.635 319.459Z" fill="#7FAD39"/>
<path d="M436.822 538.082L428.392 540.164L424.923 532.57L423.033 541.488L400.674 547.011C399.602 547.276 398.474 547.191 397.453 546.768C396.433 546.346 395.575 545.608 395.003 544.663C394.432 543.717 394.177 542.614 394.277 541.514C394.376 540.413 394.825 539.373 395.556 538.546L410.369 521.793L408.383 513.739L427.44 510.222L436.822 538.082Z" fill="#2F2E41"/>
<path d="M347.511 540.686L339.472 537.401L341.135 529.218L334.362 535.314L313.039 526.603C312.017 526.185 311.155 525.452 310.579 524.509C310.003 523.567 309.743 522.464 309.837 521.363C309.931 520.263 310.375 519.221 311.102 518.39C311.83 517.559 312.804 516.982 313.882 516.745L335.71 511.931L338.842 504.251L356.315 512.638L347.511 540.686Z" fill="#2F2E41"/>
<path d="M319.515 316.789H312.928C305.847 316.78 299.057 313.961 294.05 308.949C289.042 303.937 286.226 297.142 286.218 290.054V289.688H346.226V290.054C346.218 297.142 343.401 303.937 338.393 308.949C333.386 313.961 326.596 316.78 319.515 316.789Z" fill="#E4E4E4"/>
<path d="M312.929 280.166C312.929 281.986 309.635 283.462 309.635 283.462C309.635 283.462 306.342 281.986 306.342 280.166C306.342 278.345 309.635 276.869 309.635 276.869C309.635 276.869 312.929 278.345 312.929 280.166Z" fill="#3F3D56"/>
<path d="M332.687 280.166C332.687 281.986 329.394 283.462 329.394 283.462C329.394 283.462 326.101 281.986 326.101 280.166C326.101 278.345 329.394 276.869 329.394 276.869C329.394 276.869 332.687 278.345 332.687 280.166Z" fill="#3F3D56"/>
<path d="M319.515 286.758C319.515 288.578 316.222 290.054 316.222 290.054C316.222 290.054 312.929 288.578 312.929 286.758C312.929 284.937 316.222 283.462 316.222 283.462C316.222 283.462 319.515 284.937 319.515 286.758Z" fill="#3F3D56"/>
<path d="M296.463 273.207C298.282 273.207 299.756 271.732 299.756 269.911C299.756 268.091 298.282 266.615 296.463 266.615C294.644 266.615 293.17 268.091 293.17 269.911C293.17 271.732 294.644 273.207 296.463 273.207Z" fill="#3F3D56"/>
<path d="M248.569 262.828L300.507 270.007C300.977 270.072 301.429 270.232 301.836 270.476C302.242 270.721 302.595 271.045 302.873 271.43C303.151 271.815 303.347 272.252 303.452 272.715C303.556 273.179 303.565 273.658 303.479 274.125C303.393 274.592 303.213 275.036 302.951 275.432C302.688 275.827 302.348 276.165 301.952 276.425C301.555 276.685 301.109 276.863 300.642 276.946C300.175 277.029 299.697 277.016 299.234 276.909L248.159 265.052C247.875 264.987 247.628 264.814 247.468 264.57C247.309 264.326 247.249 264.03 247.302 263.744C247.355 263.457 247.516 263.202 247.752 263.031C247.988 262.861 248.281 262.788 248.569 262.828Z" fill="#E4E4E4"/>
<path d="M311.683 99.0379V1.52588e-05H305.097V99.0379C296.098 99.8597 287.731 104.018 281.638 110.698C275.546 117.377 272.167 126.094 272.166 135.139V145.027H295.218C295.218 148.524 296.606 151.877 299.076 154.35C301.546 156.822 304.897 158.211 308.39 158.211C311.884 158.211 315.234 156.822 317.705 154.35C320.175 151.877 321.563 148.524 321.563 145.027H344.615V135.139C344.614 126.094 341.235 117.377 335.142 110.698C329.049 104.018 320.682 99.8597 311.683 99.0379Z" fill="#F0F0F0"/>
<path d="M396.481 74.2784V1.52588e-05H391.542V74.2784C384.792 74.8948 378.517 78.0138 373.948 83.0232C369.378 88.0327 366.844 94.5707 366.843 101.354V108.77H384.132C384.132 111.393 385.173 113.908 387.026 115.762C388.878 117.617 391.391 118.658 394.011 118.658C396.632 118.658 399.145 117.617 400.997 115.762C402.85 113.908 403.891 111.393 403.891 108.77H421.18V101.354C421.179 94.5707 418.645 88.0327 414.075 83.0233C409.506 78.0138 403.231 74.8948 396.481 74.2784Z" fill="#F0F0F0"/>
<path d="M229.63 74.2784V1.52588e-05H224.69V74.2784C217.941 74.8948 211.666 78.0138 207.096 83.0232C202.526 88.0327 199.992 94.5707 199.992 101.354V108.77H217.28C217.28 111.393 218.321 113.908 220.174 115.762C222.027 117.617 224.54 118.658 227.16 118.658C229.78 118.658 232.293 117.617 234.146 115.762C235.998 113.908 237.039 111.393 237.039 108.77H254.328V101.354C254.327 94.5707 251.793 88.0327 247.224 83.0233C242.654 78.0138 236.379 74.8948 229.63 74.2784Z" fill="#F0F0F0"/>
<path d="M526.935 174.637C522.275 169.197 520.059 161.979 516.333 155.802C512.607 149.625 506.124 144.096 499.274 145.534C494.552 146.525 490.903 150.695 489.056 155.344C487.209 159.994 486.863 165.121 486.539 170.144C486.653 159.821 479.859 149.814 470.499 146.521C461.14 143.227 449.939 146.901 444.057 155.194C441.491 152.813 438.141 151.457 434.642 151.384C431.143 151.31 427.739 152.524 425.075 154.795C419.815 159.501 418.651 168.458 422.519 174.46C426.388 180.463 434.767 182.699 440.915 179.37L443.089 181.371C441.865 185.654 444.238 190.713 448.226 192.326C451.46 193.633 456.026 193.416 457.237 196.813C458.082 199.186 456.502 201.72 454.82 203.544C453.139 205.368 451.142 207.251 450.94 209.775C450.635 213.584 454.567 216.252 458.142 217.055C466.76 218.993 476.324 214.998 481.291 207.385C481.387 207.238 481.491 207.091 481.603 206.944C484.39 203.377 486.422 199.278 487.573 194.899C488.724 190.519 488.97 185.951 488.298 181.472C488.019 179.713 488.3 178.404 489.512 177.987C494.751 176.186 509.428 179.967 513.87 183.383C518.313 186.799 521.87 191.321 526.149 194.958C530.428 198.595 535.88 201.4 541.313 200.41C545.664 199.617 549.365 196.455 551.855 192.641C554.345 188.828 555.778 184.382 557.061 179.964C547.439 185.528 534.271 183.199 526.935 174.637Z" fill="#2F2E41"/>
</g>
<defs>
<clipPath id="clip0_19_76">
<rect width="654" height="549" fill="white"/>
</clipPath>
</defs>
</svg>
